<svg width="22" height="32" viewBox="0 0 22 32" fill="none" xmlns="http://www.w3.org/2000/svg">
<g id="XMLID_307_" clip-path="url(#clip0_2699_632)">
<path id="XMLID_315_" d="M6.27539 21.6055H15.7247V26.3301H6.27539V21.6055Z" fill="#E74040"/>
<path id="XMLID_817_" d="M11.0002 3.65234C5.26882 3.65234 0.605957 8.31527 0.605957 14.0466V28.2206C0.605957 30.3047 2.30154 32.0003 4.38569 32.0003H17.6147C19.6989 32.0003 21.3945 30.3047 21.3945 28.2206V14.0466C21.3945 8.31521 16.7317 3.65234 11.0002 3.65234ZM5.33062 12.1567H16.6698V14.0466H14.7799V15.9365H12.8901V14.0466H5.33062V12.1567ZM17.6147 28.2206H4.38569V19.7162H17.6147V28.2206Z" fill="#E74040"/>
<path id="XMLID_844_" d="M20.7052 1.83877L15.342 0L14.5576 2.288C16.4528 2.86245 18.1555 3.88336 19.5431 5.22799L20.7052 1.83877Z" fill="#E74040"/>
<path id="XMLID_847_" d="M7.44302 2.288L6.65853 0L1.29541 1.83877L2.45743 5.22799C3.84509 3.88342 5.5478 2.86245 7.44302 2.288Z" fill="#E74040"/>
</g>
<defs>
<clipPath id="clip0_2699_632">
<rect width="20.7885" height="32" fill="white" transform="translate(0.605957)"/>
</clipPath>
</defs>
</svg>
