<svg width="28" height="32" viewBox="0 0 28 32" fill="none" xmlns="http://www.w3.org/2000/svg">
<g id="Frame" clip-path="url(#clip0_2699_639)">
<path id="Vector" d="M4.61337 25.5456H26.4108C26.4775 25.5456 26.5422 25.5361 26.6043 25.5213C26.6093 25.5213 26.6134 25.5221 26.6183 25.5221C27.0837 25.5221 27.4617 25.1445 27.4617 24.6788V0.843336C27.4617 0.377812 27.0837 0 26.6183 0H26.4125H5.96215H4.61456C2.36984 0 0.543973 1.82629 0.543973 4.07037C0.543973 4.10047 0.549894 4.12904 0.55282 4.15809C0.549894 6.23107 0.524187 25.2792 0.549894 27.7833C0.548292 27.8322 0.5423 27.88 0.5423 27.9295C0.5423 30.0873 2.2319 31.8538 4.35713 31.9873C4.39977 31.9939 4.44157 32.0001 4.48581 32.0001H26.6183C27.0836 32.0001 27.4616 31.6225 27.4616 31.1567V27.9823C27.4616 27.5169 27.0835 27.139 26.6183 27.139C26.153 27.139 25.7749 27.517 25.7749 27.9823V30.3135H4.61337C3.33182 30.3135 2.28568 29.296 2.23427 28.0272C2.23552 28.0045 2.23963 27.9831 2.23921 27.9601C2.23838 27.923 2.23712 27.8654 2.23629 27.7888C2.31 26.54 3.34645 25.5456 4.61337 25.5456ZM5.18841 4.07037C5.18841 3.60485 5.56623 3.22704 6.03175 3.22704C6.49727 3.22704 6.87509 3.60485 6.87509 4.07037V21.2008C6.87509 21.6661 6.49727 22.0441 6.03175 22.0441C5.56623 22.0441 5.18841 21.666 5.18841 21.2008V4.07037Z" fill="#E74040"/>
</g>
<defs>
<clipPath id="clip0_2699_639">
<rect width="26.9231" height="32.0001" fill="white" transform="translate(0.538574)"/>
</clipPath>
</defs>
</svg>
