<svg width="22" height="23" viewBox="0 0 22 23" fill="none" xmlns="http://www.w3.org/2000/svg">
<g id="icn bxs-star">
<path id="Vector" d="M20.1228 8.41866C20.0651 8.24885 19.959 8.09964 19.8175 7.98945C19.676 7.87926 19.5054 7.81292 19.3266 7.79861L14.0974 7.3831L11.8346 2.37409C11.7626 2.21276 11.6453 2.07573 11.4971 1.97955C11.3489 1.88336 11.176 1.83213 10.9993 1.83203C10.8226 1.83193 10.6497 1.88298 10.5014 1.979C10.353 2.07502 10.2357 2.21192 10.1634 2.37317L7.90061 7.3831L2.67146 7.79861C2.49577 7.81253 2.3278 7.87677 2.18767 7.98364C2.04753 8.09052 1.94115 8.23551 1.88125 8.40126C1.82136 8.56701 1.81048 8.74651 1.84993 8.91828C1.88938 9.09005 1.97748 9.24682 2.10369 9.36983L5.968 13.1369L4.60132 19.0549C4.55982 19.234 4.57312 19.4215 4.63949 19.593C4.70587 19.7645 4.82225 19.9121 4.97353 20.0166C5.12482 20.1211 5.30403 20.1777 5.4879 20.1791C5.67177 20.1805 5.85182 20.1266 6.00469 20.0244L10.999 16.6949L15.9934 20.0244C16.1496 20.1282 16.3339 20.1816 16.5214 20.1774C16.7088 20.1733 16.8906 20.1119 17.0421 20.0014C17.1937 19.8909 17.3077 19.7367 17.369 19.5595C17.4303 19.3822 17.4358 19.1904 17.3848 19.01L15.7072 13.1397L19.8678 9.39551C20.1402 9.1497 20.2402 8.76629 20.1228 8.41866Z" fill="#F3CD03"/>
</g>
</svg>
