<svg width="23" height="23" viewBox="0 0 23 23" fill="none" xmlns="http://www.w3.org/2000/svg">
<g id="icn bx-star">
<path id="Vector" d="M5.99772 13.1384L4.63104 19.0564C4.58872 19.2356 4.60143 19.4234 4.6675 19.5953C4.73357 19.7671 4.84993 19.9151 5.00139 20.0198C5.15285 20.1245 5.33237 20.1811 5.5165 20.1822C5.70062 20.1833 5.8808 20.1288 6.03349 20.0259L11.0278 16.6964L16.0222 20.0259C16.1784 20.1297 16.3627 20.1831 16.5502 20.1789C16.7377 20.1748 16.9194 20.1134 17.0709 20.0029C17.2225 19.8924 17.3365 19.7382 17.3978 19.5609C17.4591 19.3837 17.4646 19.1919 17.4136 19.0115L15.736 13.1412L19.8966 9.39701C20.0298 9.27702 20.125 9.12061 20.1703 8.94712C20.2156 8.77362 20.209 8.59065 20.1515 8.42083C20.0939 8.25102 19.9878 8.1018 19.8463 7.99164C19.7048 7.88148 19.5342 7.81521 19.3554 7.80102L14.1263 7.3846L11.8634 2.37558C11.7913 2.21429 11.674 2.07733 11.5257 1.98123C11.3774 1.88512 11.2045 1.83398 11.0278 1.83398C10.8511 1.83398 10.6782 1.88512 10.5299 1.98123C10.3817 2.07733 10.2644 2.21429 10.1922 2.37558L7.92942 7.3846L2.70027 7.8001C2.52457 7.81402 2.35661 7.87826 2.21647 7.98514C2.07634 8.09201 1.96996 8.237 1.91006 8.40275C1.85017 8.56851 1.83929 8.748 1.87874 8.91977C1.91819 9.09155 2.00629 9.24831 2.1325 9.37133L5.99772 13.1384ZM8.61459 9.17045C8.77831 9.15755 8.93555 9.10085 9.06982 9.00628C9.20408 8.91171 9.31044 8.78276 9.37773 8.63295L11.0278 4.98144L12.6779 8.63295C12.7452 8.78276 12.8516 8.91171 12.9859 9.00628C13.1201 9.10085 13.2774 9.15755 13.4411 9.17045L17.0843 9.45938L14.0841 12.1597C13.8236 12.3945 13.7199 12.7559 13.8153 13.0935L14.9646 17.1155L11.5378 14.8307C11.3874 14.7298 11.2104 14.6758 11.0292 14.6758C10.8481 14.6758 10.671 14.7298 10.5206 14.8307L6.93972 17.2183L7.90282 13.0485C7.93813 12.8952 7.93339 12.7353 7.88906 12.5843C7.84472 12.4333 7.76228 12.2962 7.64966 12.1863L4.8631 9.46947L8.61459 9.17045Z" fill="#F3CD03"/>
</g>
</svg>
